<?xml version="1.0" standalone="no"?>
<!DOCTYPE svg PUBLIC "-//W3C//DTD SVG 20010904//EN"
 "http://www.w3.org/TR/2001/REC-SVG-20010904/DTD/svg10.dtd">
<svg version="1.0" xmlns="http://www.w3.org/2000/svg"
 width="600.000000pt" height="600.000000pt" viewBox="0 0 600.000000 600.000000"
 preserveAspectRatio="xMidYMid meet">
<metadata>
Created by potrace 1.11, written by Peter Selinger 2001-2013
</metadata>
<g transform="translate(0.000000,600.000000) scale(0.100000,-0.100000)"
fill="#000000" stroke="none">
<path d="M2417 4624 c-1 -2 -45 -6 -97 -9 -52 -3 -104 -7 -116 -9 -11 -2 -56
-7 -100 -11 -43 -3 -99 -8 -124 -10 -43 -4 -78 -7 -300 -21 -52 -3 -122 -8
-155 -10 -33 -3 -242 -6 -464 -7 l-404 -3 -19 -24 c-20 -24 -20 -44 -3 -240 6
-65 16 -234 17 -295 1 -52 -2 -108 -17 -315 -21 -293 -20 -282 -31 -495 -10
-201 -10 -498 0 -615 4 -52 9 -108 10 -125 4 -41 18 -267 21 -340 2 -33 6
-123 9 -200 6 -129 13 -210 22 -260 2 -11 6 -44 9 -73 11 -108 40 -124 235
-127 224 -4 321 -14 500 -52 103 -21 97 -20 170 -29 114 -14 346 -6 615 20
183 19 228 22 410 33 162 9 563 9 710 0 457 -30 904 -27 1325 8 84 7 136 12
195 21 22 3 132 7 245 9 247 4 325 11 341 31 9 11 13 93 15 307 1 161 5 319 7
352 3 33 8 101 12 150 4 50 8 92 10 95 9 15 19 232 19 415 0 226 -9 452 -30
749 -3 50 -7 118 -9 151 -7 136 -16 272 -21 305 -3 19 -7 125 -10 235 -6 220
-14 268 -47 289 -12 8 -56 18 -97 22 -65 7 -505 7 -1040 1 -142 -1 -276 4
-435 18 -22 2 -89 7 -150 11 -60 3 -126 8 -145 9 -19 1 -91 6 -160 9 -69 4
-160 9 -202 11 -256 14 -333 17 -515 19 -112 2 -204 2 -206 0z m778 -159 c88
-3 194 -7 235 -10 406 -22 612 -29 1285 -40 404 -6 521 -10 547 -20 15 -6 41
-74 55 -140 11 -55 5 -199 -12 -285 -24 -124 -27 -155 -28 -265 -1 -116 5
-167 40 -330 14 -68 27 -163 28 -220 2 -55 7 -158 11 -230 15 -247 7 -1015
-12 -1109 -3 -17 -10 -96 -18 -215 -2 -28 1 -28 -171 -35 -66 -3 -147 -9 -180
-15 -33 -5 -91 -13 -130 -17 -107 -11 -1202 -19 -1760 -13 -143 2 -309 0 -370
-4 -290 -18 -367 -21 -595 -21 -135 0 -279 4 -320 8 -201 22 -337 28 -625 30
-143 1 -269 5 -280 8 -11 3 -39 11 -61 17 -48 13 -60 25 -69 66 -20 97 -23
156 -18 295 12 330 8 618 -12 742 -2 13 -6 50 -9 83 -6 57 -10 88 -21 173 -14
107 -19 164 -19 237 0 80 9 196 19 238 3 12 7 34 10 50 10 55 16 82 20 97 3 8
7 33 10 55 4 22 8 50 10 61 2 12 6 48 10 80 4 33 9 70 11 84 2 14 6 108 9 210
7 250 17 353 36 376 18 22 150 28 649 30 440 2 782 8 1010 19 36 2 166 6 290
10 124 4 226 9 228 10 2 2 11 1 20 -1 9 -1 89 -6 177 -9z"/>
<path d="M1876 4055 c-11 -11 -14 -29 -11 -58 7 -64 7 -257 -1 -409 -7 -147
-7 -145 43 -152 35 -5 137 25 171 50 40 31 53 61 57 137 6 122 -40 264 -120
366 -60 77 -106 98 -139 66z m119 -203 c23 -52 28 -123 15 -201 -6 -39 -12
-74 -11 -78 0 -13 -41 -53 -50 -47 -5 3 -7 22 -5 42 3 20 5 111 6 202 1 177 2
179 45 82z"/>
<path d="M2245 4054 c-11 -11 -14 -63 -15 -246 -1 -128 -3 -257 -3 -286 -3
-88 13 -94 205 -83 10 1 25 12 34 26 15 23 15 27 1 43 -9 10 -31 19 -49 21
-18 1 -44 4 -58 6 -14 2 -33 4 -43 4 -14 1 -17 6 -12 22 4 12 8 45 10 73 2 46
5 51 27 54 34 4 52 42 32 70 -8 11 -24 22 -37 24 -20 3 -22 9 -25 63 -1 33 -4
76 -5 95 l-2 35 61 5 c65 5 94 21 94 50 0 25 -23 32 -118 35 -60 2 -86 -1 -97
-11z"/>
<path d="M2590 4050 c-12 -12 -19 -24 -17 -28 3 -4 8 -36 11 -72 17 -165 70
-426 98 -487 32 -67 103 -6 122 104 7 40 53 224 82 325 13 48 24 99 24 113 0
62 -45 87 -75 42 -8 -13 -25 -64 -36 -113 -12 -49 -32 -129 -44 -179 l-22 -90
-21 90 c-11 50 -24 115 -27 145 -10 87 -22 130 -41 151 -22 24 -29 24 -54 -1z"/>
<path d="M3402 4062 c-20 -13 -23 -42 -28 -277 -7 -342 -8 -327 11 -341 21
-15 71 0 85 26 5 10 11 57 14 106 2 49 5 92 5 96 1 4 18 12 39 18 54 15 68 30
84 85 17 59 16 70 -7 165 -25 101 -44 120 -125 126 -36 2 -71 1 -78 -4z m109
-94 c1 -13 1 -26 1 -29 -1 -3 -2 -32 -3 -65 -3 -72 -15 -112 -30 -97 -11 11
-19 199 -10 209 14 13 41 2 42 -18z"/>
<path d="M3750 4042 c-29 -29 -34 -48 -30 -102 2 -36 45 -125 81 -171 40 -50
67 -121 61 -160 -6 -41 -29 -48 -56 -16 -12 14 -34 29 -49 32 -22 6 -28 3 -38
-18 -26 -57 15 -129 91 -160 109 -45 189 56 158 197 -5 23 -40 104 -79 180
-42 84 -66 143 -60 149 5 5 25 0 49 -12 39 -20 40 -20 57 -1 16 18 17 21 1 45
-20 31 -69 57 -118 62 -32 4 -43 0 -68 -25z"/>
<path d="M3087 4048 c-61 -22 -91 -137 -91 -353 0 -197 33 -263 132 -269 83
-5 115 28 140 149 16 79 0 381 -24 426 -15 29 -70 59 -106 58 -12 0 -35 -5
-51 -11z m88 -111 c13 -72 0 -342 -15 -342 -1 0 -3 -10 -4 -23 -2 -13 -10 -31
-20 -40 -15 -16 -16 -4 -12 178 3 107 7 205 10 218 16 74 30 77 41 9z"/>
<path d="M2187 3254 c-1 -1 -121 -4 -267 -8 -373 -9 -472 -15 -490 -31 -8 -7
-27 -17 -43 -20 -15 -4 -37 -19 -48 -33 -20 -26 -20 -27 -1 -42 12 -10 34 -15
53 -13 65 5 906 15 1199 14 162 -1 626 -4 1030 -7 1076 -8 1097 -7 1125 16 22
18 18 48 -6 61 -13 7 -69 10 -148 9 -349 -5 -385 -3 -432 21 -35 18 -67 24
-164 29 -95 6 -1802 9 -1808 4z"/>
<path d="M2167 3053 c-1 -1 -108 -4 -237 -7 -215 -5 -369 -11 -555 -21 -38 -2
-95 -4 -126 -4 -41 -1 -63 -6 -80 -21 l-24 -20 23 -19 c25 -22 -40 -20 899
-24 215 -1 389 -5 386 -9 -2 -5 -9 -8 -15 -8 -23 0 -186 -83 -262 -134 -129
-87 -235 -181 -391 -351 -111 -120 -103 -109 -179 -258 -35 -67 -71 -136 -82
-153 -15 -27 -16 -34 -5 -48 7 -9 16 -14 20 -11 4 2 42 62 84 132 132 223 184
286 417 507 144 136 300 218 480 253 93 18 595 25 660 9 14 -3 45 -9 70 -12
94 -12 232 -58 383 -128 42 -20 79 -36 81 -36 10 0 177 -99 235 -139 140 -96
314 -295 455 -518 50 -80 62 -93 86 -93 32 0 70 37 70 69 0 41 -122 206 -315
426 -165 188 -241 249 -430 342 -139 69 -223 104 -390 161 l-30 10 30 2 c17 1
44 4 60 6 17 3 294 6 617 8 605 3 618 4 618 42 0 7 -9 18 -20 24 -42 23 -553
30 -1130 16 -398 -10 -588 -10 -850 -1 -198 7 -549 12 -553 8z"/>
<path d="M2758 2785 c-2 -2 -28 -6 -58 -9 -202 -19 -439 -106 -582 -215 -102
-78 -290 -270 -343 -350 -54 -82 -113 -211 -122 -265 -4 -28 -1 -36 16 -45 36
-19 55 1 84 88 49 148 96 230 177 303 66 60 353 246 470 305 57 29 170 63 253
77 112 19 321 25 404 11 21 -3 53 -8 72 -11 78 -10 258 -81 346 -137 76 -48
182 -133 264 -212 53 -52 154 -139 224 -194 70 -56 140 -119 155 -141 30 -44
60 -57 90 -41 38 20 33 47 -27 137 -132 195 -252 313 -441 435 -178 115 -410
207 -620 245 -72 13 -353 28 -362 19z"/>
<path d="M2232 2389 c-12 -5 -22 -16 -23 -26 -1 -10 -3 -83 -5 -163 -2 -80 -5
-163 -8 -185 -5 -50 8 -75 39 -75 37 0 55 35 55 107 l0 62 39 11 c50 13 80 57
75 109 -6 70 -27 133 -50 147 -26 18 -91 24 -122 13z m89 -66 c7 -76 -8 -159
-25 -142 -5 5 -9 92 -7 137 1 26 30 30 32 5z"/>
<path d="M2791 2381 c-4 -9 -7 -41 -5 -71 1 -30 4 -120 5 -200 1 -80 4 -151 7
-157 6 -19 57 -16 73 3 9 11 13 37 11 75 -2 33 1 59 6 59 15 0 33 -26 38 -57
11 -63 25 -91 48 -95 39 -8 57 8 51 45 -7 41 -38 117 -47 117 -5 0 -8 9 -8 20
0 11 4 20 9 20 21 0 29 62 17 129 -16 81 -57 115 -149 124 -37 3 -50 0 -56
-12z m114 -61 c8 -13 13 -89 8 -111 -5 -16 -31 -34 -39 -26 -2 2 -7 36 -10 75
-6 68 -5 72 14 72 12 0 24 -4 27 -10z"/>
<path d="M2542 2370 c-42 -26 -58 -84 -66 -245 -4 -87 27 -178 66 -190 37 -12
99 -7 118 10 31 28 53 129 46 214 -4 42 -8 97 -10 123 -2 26 -9 55 -16 63 -34
40 -95 51 -138 25z m92 -133 c4 -110 -21 -246 -42 -233 -13 8 -4 268 10 306 9
23 10 24 20 6 6 -10 11 -46 12 -79z"/>
<path d="M3048 2372 c-16 -18 14 -42 51 -42 70 -1 69 1 65 -133 -3 -67 -6
-150 -8 -184 -4 -72 2 -86 35 -81 36 5 50 47 51 146 0 48 -1 92 -2 97 -1 6 -2
39 -1 75 l1 66 54 -3 c58 -2 80 11 74 44 -4 20 -5 20 -201 26 -84 3 -110 0
-119 -11z"/>
<path d="M3422 2370 c-35 -21 -50 -59 -59 -149 -22 -228 11 -298 137 -293 78
4 103 130 74 367 -9 75 -87 114 -152 75z m82 -150 c-1 -125 -22 -245 -41 -226
-8 8 -6 241 2 288 15 82 39 42 39 -62z"/>
</g>
</svg>
