<?xml version="1.0" encoding="utf-8"?>
<!-- Generator: Adobe Illustrator 16.0.0, SVG Export Plug-In . SVG Version: 6.00 Build 0)  -->
<!DOCTYPE svg PUBLIC "-//W3C//DTD SVG 1.1//EN" "http://www.w3.org/Graphics/SVG/1.1/DTD/svg11.dtd">
<svg version="1.1" id="Layer_1" xmlns="http://www.w3.org/2000/svg" xmlns:xlink="http://www.w3.org/1999/xlink" x="0px" y="0px"
	 width="238px" height="120.947px" viewBox="0 0 238 120.947" enable-background="new 0 0 238 120.947" xml:space="preserve">
<g>
	<polygon fill="#009ED1" points="238,35.946 207.939,35.946 207.939,8.947 132.676,8.947 121.49,8.947 101.982,8.947 90.688,8.947 
		49,8.947 49,105.947 91,105.947 91,120.947 133,120.947 133,108.947 163,108.947 163,83.947 178,83.947 178,100.947 
		207.939,100.947 207.939,84.464 207.939,65.947 238,65.947 	"/>
	<polygon fill="#231F20" points="0,80.947 49,80.947 49,89.947 90.193,89.947 104,76.101 104,22.946 90.252,8.947 49,8.947 49,0 
		0,0 	"/>
	<path fill="#FFFFFF" d="M17,24.946v-16H9v47.314v7.686h22l4-4v-31l-4-4H17z M17,55.946v-23h10v23H17z M49,63.947h-8v-38.95h8
		V63.947z M62,63.947h-8v-25h8V63.947z M62,32.946h-8v-8h8V32.946z M90,63.947l4-4v-31l-4-3.95H68v54.95h8v-16H90z M85.795,55.946
		H75.609v-23h10.186V55.946z"/>
	<g>
		<path fill="#F4F5F5" d="M115.76,33.306l2.352,7.875h0.035l2.245-7.875h1.265l2.245,7.875h0.036l2.352-7.875h1.193l-2.957,9.193
			h-1.23l-2.262-7.732h-0.035l-2.246,7.732h-1.229l-2.957-9.193H115.76z"/>
		<path fill="#F4F5F5" d="M129.077,39.461c0.112,0.434,0.294,0.823,0.544,1.167c0.249,0.345,0.563,0.629,0.943,0.855
			c0.381,0.226,0.838,0.338,1.372,0.338c0.819,0,1.461-0.213,1.925-0.641c0.463-0.428,0.783-0.998,0.961-1.71h1.123
			c-0.238,1.045-0.674,1.853-1.31,2.423c-0.636,0.57-1.535,0.855-2.699,0.855c-0.725,0-1.351-0.128-1.88-0.383
			c-0.528-0.255-0.959-0.605-1.291-1.051c-0.333-0.446-0.579-0.962-0.74-1.55c-0.16-0.588-0.24-1.208-0.24-1.862
			c0-0.605,0.08-1.199,0.24-1.781c0.161-0.582,0.407-1.102,0.74-1.559c0.332-0.457,0.763-0.825,1.291-1.104
			c0.529-0.279,1.155-0.419,1.88-0.419c0.736,0,1.366,0.149,1.889,0.446s0.946,0.686,1.273,1.167
			c0.327,0.481,0.562,1.033,0.704,1.657s0.201,1.256,0.178,1.897h-7.072C128.908,38.609,128.964,39.028,129.077,39.461z
			 M134.636,36.032c-0.137-0.392-0.329-0.739-0.579-1.042c-0.25-0.303-0.553-0.546-0.908-0.73c-0.357-0.184-0.761-0.276-1.212-0.276
			c-0.464,0-0.873,0.092-1.229,0.276c-0.355,0.184-0.659,0.427-0.908,0.73c-0.25,0.303-0.449,0.653-0.598,1.051
			c-0.148,0.398-0.246,0.805-0.293,1.221h5.95C134.846,36.833,134.771,36.424,134.636,36.032z"/>
		<path fill="#F4F5F5" d="M138.172,29.778v5.273h0.035c0.119-0.332,0.288-0.624,0.508-0.873c0.221-0.25,0.473-0.46,0.758-0.633
			c0.285-0.172,0.594-0.3,0.926-0.383s0.666-0.125,0.998-0.125c0.701,0,1.31,0.131,1.826,0.392s0.947,0.615,1.291,1.06
			c0.345,0.445,0.6,0.962,0.767,1.55c0.167,0.588,0.249,1.209,0.249,1.862c0,0.653-0.082,1.274-0.249,1.862s-0.422,1.104-0.767,1.55
			c-0.344,0.445-0.774,0.796-1.291,1.051c-0.517,0.255-1.125,0.383-1.826,0.383c-0.748,0-1.416-0.172-2.004-0.517
			c-0.588-0.345-1.014-0.837-1.274-1.479h-0.036v1.746h-1.033V29.778H138.172z M144.238,36.486
			c-0.113-0.469-0.291-0.888-0.535-1.256c-0.243-0.368-0.555-0.668-0.935-0.899c-0.38-0.232-0.837-0.348-1.372-0.348
			c-0.594,0-1.096,0.116-1.506,0.348c-0.409,0.231-0.742,0.532-0.997,0.899c-0.256,0.369-0.44,0.787-0.552,1.256
			c-0.113,0.469-0.17,0.941-0.17,1.416c0,0.476,0.057,0.947,0.17,1.417c0.111,0.469,0.296,0.888,0.552,1.256
			c0.255,0.369,0.588,0.668,0.997,0.9c0.41,0.231,0.912,0.347,1.506,0.347c0.535,0,0.992-0.116,1.372-0.347s0.691-0.531,0.935-0.9
			c0.244-0.368,0.422-0.787,0.535-1.256s0.169-0.941,0.169-1.417C144.407,37.428,144.352,36.956,144.238,36.486z"/>
		<path fill="#F4F5F5" d="M116.32,54.251c0.113,0.434,0.295,0.823,0.544,1.167c0.249,0.345,0.563,0.629,0.944,0.855
			c0.38,0.226,0.837,0.338,1.371,0.338c0.82,0,1.461-0.213,1.925-0.641c0.463-0.428,0.784-0.998,0.962-1.71h1.123
			c-0.238,1.045-0.675,1.853-1.311,2.423c-0.635,0.57-1.535,0.855-2.699,0.855c-0.725,0-1.351-0.128-1.879-0.383
			c-0.529-0.255-0.959-0.605-1.292-1.051c-0.333-0.446-0.579-0.962-0.739-1.55s-0.24-1.208-0.24-1.862
			c0-0.605,0.08-1.199,0.24-1.781s0.406-1.102,0.739-1.559c0.333-0.457,0.763-0.825,1.292-1.104
			c0.528-0.279,1.154-0.419,1.879-0.419c0.736,0,1.366,0.149,1.889,0.446c0.523,0.297,0.947,0.686,1.273,1.167
			c0.327,0.481,0.562,1.033,0.705,1.657s0.201,1.256,0.178,1.897h-7.073C116.151,53.399,116.207,53.817,116.32,54.251z
			 M121.879,50.821c-0.137-0.392-0.329-0.739-0.578-1.042c-0.25-0.303-0.553-0.546-0.909-0.73s-0.761-0.276-1.212-0.276
			c-0.463,0-0.873,0.092-1.229,0.276c-0.356,0.184-0.66,0.427-0.908,0.73c-0.25,0.303-0.449,0.653-0.598,1.051
			c-0.148,0.398-0.246,0.805-0.294,1.221h5.95C122.09,51.623,122.016,51.213,121.879,50.821z"/>
		<path fill="#F4F5F5" d="M125.397,48.096v1.585h0.036c0.213-0.558,0.594-1.006,1.141-1.345c0.545-0.338,1.146-0.508,1.799-0.508
			c0.641,0,1.179,0.083,1.612,0.25c0.433,0.167,0.78,0.401,1.042,0.704c0.262,0.303,0.445,0.674,0.553,1.113
			c0.106,0.439,0.16,0.933,0.16,1.479v5.915h-1.123v-5.737c0-0.392-0.035-0.757-0.106-1.096c-0.071-0.338-0.196-0.632-0.374-0.882
			s-0.419-0.445-0.722-0.588s-0.681-0.214-1.132-0.214s-0.852,0.08-1.202,0.241c-0.351,0.16-0.647,0.38-0.891,0.659
			c-0.243,0.279-0.434,0.612-0.57,0.998c-0.136,0.386-0.211,0.805-0.223,1.256v5.363h-1.122v-9.193H125.397z"/>
		<path fill="#F4F5F5" d="M140.959,58.375c-0.148,0.546-0.383,1.009-0.703,1.39c-0.32,0.38-0.739,0.671-1.256,0.873
			c-0.517,0.202-1.149,0.303-1.897,0.303c-0.464,0-0.915-0.054-1.354-0.161c-0.439-0.106-0.834-0.273-1.184-0.499
			c-0.352-0.226-0.643-0.514-0.873-0.864c-0.232-0.351-0.365-0.769-0.401-1.256h1.122c0.06,0.344,0.176,0.632,0.348,0.864
			c0.172,0.232,0.38,0.419,0.623,0.562c0.244,0.143,0.514,0.246,0.811,0.312s0.6,0.098,0.909,0.098c1.045,0,1.8-0.297,2.263-0.891
			c0.463-0.594,0.695-1.449,0.695-2.565v-1.248h-0.036c-0.261,0.57-0.645,1.028-1.149,1.372c-0.505,0.345-1.096,0.517-1.772,0.517
			c-0.737,0-1.366-0.122-1.889-0.365c-0.522-0.243-0.953-0.579-1.292-1.006c-0.338-0.428-0.584-0.929-0.738-1.506
			c-0.155-0.576-0.232-1.19-0.232-1.844c0-0.629,0.092-1.226,0.276-1.791c0.185-0.564,0.451-1.057,0.802-1.479
			c0.35-0.421,0.783-0.754,1.301-0.998c0.517-0.243,1.107-0.365,1.772-0.365c0.345,0,0.668,0.048,0.972,0.143
			c0.303,0.095,0.578,0.229,0.828,0.401c0.249,0.172,0.472,0.372,0.668,0.597c0.195,0.226,0.348,0.463,0.454,0.712h0.036v-1.585
			h1.122v8.445C141.183,57.217,141.107,57.829,140.959,58.375z M138.385,55.926c0.369-0.208,0.678-0.481,0.927-0.82
			c0.249-0.338,0.437-0.727,0.562-1.167c0.125-0.439,0.188-0.891,0.188-1.354c0-0.451-0.055-0.902-0.161-1.354
			c-0.106-0.451-0.278-0.861-0.517-1.229s-0.543-0.665-0.918-0.891c-0.373-0.226-0.828-0.339-1.362-0.339s-0.991,0.11-1.372,0.33
			c-0.38,0.22-0.694,0.508-0.943,0.864c-0.25,0.356-0.432,0.763-0.544,1.22c-0.113,0.458-0.169,0.924-0.169,1.398
			c0,0.463,0.059,0.915,0.178,1.354c0.119,0.44,0.303,0.829,0.553,1.167c0.249,0.339,0.563,0.612,0.943,0.82
			c0.381,0.208,0.832,0.312,1.354,0.312C137.59,56.237,138.018,56.134,138.385,55.926z"/>
		<path fill="#F4F5F5" d="M144.016,44.568v1.8h-1.123v-1.8H144.016z M144.016,48.096v9.193h-1.123v-9.193H144.016z"/>
		<path fill="#F4F5F5" d="M146.83,48.096v1.585h0.035c0.215-0.558,0.594-1.006,1.141-1.345c0.547-0.338,1.146-0.508,1.8-0.508
			c0.642,0,1.179,0.083,1.612,0.25c0.434,0.167,0.781,0.401,1.042,0.704c0.261,0.303,0.445,0.674,0.552,1.113
			c0.107,0.439,0.161,0.933,0.161,1.479v5.915h-1.122v-5.737c0-0.392-0.036-0.757-0.107-1.096c-0.071-0.338-0.195-0.632-0.374-0.882
			s-0.419-0.445-0.722-0.588s-0.68-0.214-1.131-0.214s-0.853,0.08-1.203,0.241c-0.35,0.16-0.647,0.38-0.891,0.659
			c-0.244,0.279-0.434,0.612-0.57,0.998c-0.137,0.386-0.211,0.805-0.223,1.256v5.363h-1.122v-9.193H146.83z"/>
		<path fill="#F4F5F5" d="M155.676,54.251c0.112,0.434,0.293,0.823,0.543,1.167c0.25,0.345,0.564,0.629,0.944,0.855
			c0.38,0.226,0.837,0.338,1.372,0.338c0.818,0,1.461-0.213,1.924-0.641s0.783-0.998,0.962-1.71h1.122
			c-0.237,1.045-0.674,1.853-1.309,2.423c-0.637,0.57-1.535,0.855-2.699,0.855c-0.725,0-1.352-0.128-1.88-0.383
			c-0.528-0.255-0.96-0.605-1.292-1.051c-0.332-0.446-0.578-0.962-0.739-1.55c-0.16-0.588-0.24-1.208-0.24-1.862
			c0-0.605,0.08-1.199,0.24-1.781c0.161-0.582,0.407-1.102,0.739-1.559c0.332-0.457,0.764-0.825,1.292-1.104
			c0.528-0.279,1.155-0.419,1.88-0.419c0.736,0,1.365,0.149,1.889,0.446c0.521,0.297,0.946,0.686,1.273,1.167
			c0.326,0.481,0.561,1.033,0.703,1.657s0.202,1.256,0.179,1.897h-7.073C155.506,53.399,155.562,53.817,155.676,54.251z
			 M161.234,50.821c-0.137-0.392-0.33-0.739-0.58-1.042c-0.249-0.303-0.552-0.546-0.908-0.73s-0.76-0.276-1.211-0.276
			c-0.464,0-0.873,0.092-1.23,0.276c-0.355,0.184-0.658,0.427-0.908,0.73c-0.249,0.303-0.448,0.653-0.597,1.051
			c-0.148,0.398-0.247,0.805-0.294,1.221h5.951C161.444,51.623,161.37,51.213,161.234,50.821z"/>
		<path fill="#F4F5F5" d="M164.477,54.251c0.113,0.434,0.294,0.823,0.543,1.167c0.25,0.345,0.564,0.629,0.945,0.855
			c0.379,0.226,0.836,0.338,1.371,0.338c0.819,0,1.461-0.213,1.924-0.641s0.784-0.998,0.963-1.71h1.122
			c-0.237,1.045-0.675,1.853-1.31,2.423c-0.636,0.57-1.535,0.855-2.699,0.855c-0.725,0-1.352-0.128-1.879-0.383
			c-0.529-0.255-0.96-0.605-1.293-1.051c-0.332-0.446-0.578-0.962-0.738-1.55s-0.24-1.208-0.24-1.862c0-0.605,0.08-1.199,0.24-1.781
			s0.406-1.102,0.738-1.559c0.333-0.457,0.764-0.825,1.293-1.104c0.527-0.279,1.154-0.419,1.879-0.419
			c0.736,0,1.365,0.149,1.889,0.446c0.522,0.297,0.947,0.686,1.273,1.167c0.326,0.481,0.562,1.033,0.704,1.657
			s0.202,1.256,0.179,1.897h-7.074C164.307,53.399,164.363,53.817,164.477,54.251z M170.035,50.821
			c-0.137-0.392-0.33-0.739-0.579-1.042c-0.249-0.303-0.552-0.546-0.909-0.73c-0.355-0.184-0.76-0.276-1.211-0.276
			c-0.463,0-0.873,0.092-1.229,0.276s-0.659,0.427-0.908,0.73c-0.249,0.303-0.448,0.653-0.597,1.051
			c-0.148,0.398-0.247,0.805-0.295,1.221h5.951C170.246,51.623,170.172,51.213,170.035,50.821z"/>
		<path fill="#F4F5F5" d="M173.482,48.096v2.156h0.035c0.285-0.749,0.728-1.324,1.328-1.729c0.6-0.403,1.314-0.588,2.146-0.552
			v1.123c-0.512-0.023-0.975,0.044-1.391,0.205c-0.415,0.16-0.774,0.389-1.077,0.686c-0.303,0.297-0.538,0.65-0.704,1.06
			c-0.166,0.41-0.249,0.858-0.249,1.345v4.899h-1.122v-9.193H173.482z"/>
		<path fill="#F4F5F5" d="M182.906,49.886c-0.131-0.255-0.306-0.466-0.525-0.633c-0.22-0.166-0.472-0.288-0.757-0.365
			c-0.285-0.077-0.588-0.116-0.909-0.116c-0.249,0-0.502,0.027-0.757,0.08c-0.255,0.054-0.489,0.143-0.704,0.268
			c-0.213,0.125-0.386,0.288-0.516,0.49c-0.131,0.202-0.196,0.452-0.196,0.749c0,0.249,0.062,0.46,0.187,0.632
			c0.125,0.172,0.282,0.318,0.473,0.437c0.189,0.119,0.397,0.217,0.623,0.294s0.434,0.14,0.624,0.187l1.497,0.338
			c0.32,0.048,0.638,0.134,0.953,0.258c0.314,0.125,0.594,0.288,0.836,0.49c0.244,0.202,0.443,0.451,0.598,0.748
			s0.231,0.647,0.231,1.051c0,0.499-0.112,0.923-0.339,1.274c-0.226,0.35-0.514,0.635-0.863,0.855
			c-0.352,0.22-0.746,0.377-1.186,0.472c-0.439,0.095-0.873,0.143-1.301,0.143c-1.08,0-1.957-0.255-2.627-0.766
			c-0.672-0.511-1.055-1.33-1.149-2.458h1.122c0.048,0.76,0.324,1.333,0.828,1.719c0.506,0.386,1.132,0.579,1.881,0.579
			c0.272,0,0.555-0.029,0.846-0.089c0.291-0.059,0.561-0.16,0.811-0.303s0.454-0.324,0.615-0.543c0.16-0.22,0.24-0.49,0.24-0.811
			c0-0.273-0.057-0.502-0.17-0.686s-0.264-0.338-0.454-0.463c-0.19-0.125-0.407-0.229-0.649-0.312
			c-0.244-0.083-0.49-0.154-0.74-0.214l-1.443-0.321c-0.367-0.095-0.707-0.205-1.016-0.33c-0.309-0.125-0.578-0.279-0.811-0.463
			c-0.23-0.184-0.412-0.41-0.543-0.677s-0.195-0.597-0.195-0.989c0-0.463,0.104-0.861,0.311-1.194
			c0.209-0.332,0.479-0.6,0.812-0.801c0.332-0.202,0.704-0.351,1.113-0.446c0.409-0.095,0.816-0.143,1.22-0.143
			c0.464,0,0.895,0.06,1.293,0.178c0.396,0.119,0.748,0.303,1.051,0.552c0.303,0.25,0.543,0.559,0.721,0.927
			c0.179,0.368,0.279,0.802,0.303,1.3h-1.121C183.108,50.441,183.037,50.142,182.906,49.886z"/>
	</g>
</g>
</svg>
