<svg id="Wort-Bildmarke" xmlns="http://www.w3.org/2000/svg" xmlns:xlink="http://www.w3.org/1999/xlink" viewBox="0 0 168.01 54.15"><defs><style>.cls-1{fill:url(#Unbenannter_Verlauf);}.cls-2{fill:#fdb42e;}.cls-3{fill:#ff961e;}.cls-4{mask:url(#mask);}.cls-5{filter:url(#luminosity-noclip);}</style><linearGradient id="Unbenannter_Verlauf" x1="-76.75" y1="-1286.39" x2="-76.1" y2="-1286.39" gradientTransform="matrix(-69.69, 0, 0, 69.69, -5303.41, 89673.04)" gradientUnits="userSpaceOnUse"><stop offset="0" stop-color="#fff"/><stop offset="1"/></linearGradient><filter id="luminosity-noclip" x="-0.01" y="0" width="47.11" height="54.15" filterUnits="userSpaceOnUse" color-interpolation-filters="sRGB"><feFlood flood-color="#fff" result="bg"/><feBlend in="SourceGraphic" in2="bg"/></filter><mask id="mask" x="0" y="0" width="47.11" height="54.15" maskUnits="userSpaceOnUse"><g class="cls-5"><g transform="translate(0.01)"><rect class="cls-1" x="-0.01" width="47.11" height="54.15"/></g></g></mask></defs><path class="cls-2" d="M43.45,45.28a24.47,24.47,0,0,1-32.76,0c-.64-.58-1.24-1.19-1.82-1.83a24.43,24.43,0,0,1,0-32.75,24,24,0,0,1,1.82-1.82,24.44,24.44,0,0,1,32.76,0L39.8,12.52a19.34,19.34,0,0,0-25.46,0,18.49,18.49,0,0,0-1.82,1.83,19.3,19.3,0,0,0,0,25.45,18.49,18.49,0,0,0,1.82,1.83,19.34,19.34,0,0,0,25.46,0,20.84,20.84,0,0,0,1.82-1.82L39.79,38l-3.66-3.66-1.78-1.77-.91.91a8.84,8.84,0,0,1-1,.84,8.93,8.93,0,0,1-10.78,0,8.77,8.77,0,0,1-1.83-1.82,8.95,8.95,0,0,1,0-10.79,9.23,9.23,0,0,1,1.82-1.82,9,9,0,0,1,12.62,1.82l1.84-1.84A11.58,11.58,0,0,0,19.83,18,12.11,12.11,0,0,0,18,19.84a11.57,11.57,0,0,0,0,14.47,11.58,11.58,0,0,0,16.3,1.83L38,39.8a16.72,16.72,0,0,1-21.8,0A17.47,17.47,0,0,1,14.35,38a16.71,16.71,0,0,1,0-21.79,17.37,17.37,0,0,1,1.82-1.82,16.69,16.69,0,0,1,21.8,0,17.37,17.37,0,0,1,1.82,1.82l1.83-1.83,3.65-3.65,1.84-1.84c-.58-.63-1.19-1.24-1.83-1.82A27.07,27.07,0,0,0,8.86,7C8.22,7.62,7.61,8.23,7,8.86A27.07,27.07,0,0,0,7,45.29c.57.63,1.18,1.24,1.82,1.82a27.07,27.07,0,0,0,36.42,0c.64-.58,1.25-1.19,1.82-1.82l-1.83-1.84Z" transform="translate(0.01)"/><path class="cls-3" d="M87.67,15.47a11.6,11.6,0,1,0,11.6,11.6,11.6,11.6,0,0,0-11.6-11.6m0,2.57a9,9,0,1,1-9,9,9,9,0,0,1,9-9" transform="translate(0.01)"/><path class="cls-3" d="M71.67,32.47a9,9,0,0,1-16.23-5.4h0a9,9,0,0,1,9-9,9.2,9.2,0,0,1,7.21,3.61l1.84-1.85A11.19,11.19,0,0,0,71.68,18a11.6,11.6,0,0,0-18.82,9.07h0a11.61,11.61,0,0,0,20.66,7.25Z" transform="translate(0.01)"/><path class="cls-3" d="M120.65,32.47a9,9,0,0,1-16.24-5.4h0a9,9,0,0,1,16.24-5.41l1.84-1.85a11.61,11.61,0,0,0-20.65,7.26h0a11.61,11.61,0,0,0,18.84,9.07,12,12,0,0,0,1.82-1.82Z" transform="translate(0.01)"/><path class="cls-3" d="M160.82,26l-2.13-.25c-3.46-.41-5.39-1.73-5.39-3.72,0-2.4,2.25-4,5.66-4A9.07,9.07,0,0,1,166,21.46l.15.19L168,19.81l-.13-.16A11.62,11.62,0,0,0,159,15.47c-5.14,0-8.23,2.7-8.23,6.74,0,3.39,2.38,5.53,6.7,6l2.26.26c3.64.41,5.65,1.54,5.65,3.56,0,2.42-3.2,4-6.39,4.05a9.17,9.17,0,0,1-7.17-3.55l0,0-1.84,1.83,0,.05a11.51,11.51,0,0,0,9,4.3c3.91,0,8.95-2.13,8.95-6.85,0-4.25-3.86-5.42-7.09-5.81" transform="translate(0.01)"/><path class="cls-3" d="M143.54,16.66V28.77c0,5.71-3.8,7.22-7.29,7.33-3.5-.11-7.29-1.62-7.29-7.33V16.66h-2.58V29c0,7.12,5.37,9.71,9.88,9.71h0c4.5,0,9.87-2.59,9.87-9.71V16.66Z" transform="translate(0.01)"/><g class="cls-4"><path class="cls-3" d="M43.45,45.28a24.46,24.46,0,0,1-32.76,0,24,24,0,0,1-1.82-1.82,24.43,24.43,0,0,1,0-32.75,24,24,0,0,1,1.82-1.82,24.44,24.44,0,0,1,32.76,0L39.8,12.52a19.34,19.34,0,0,0-25.46,0,18.49,18.49,0,0,0-1.82,1.83,19.3,19.3,0,0,0,0,25.45,18.49,18.49,0,0,0,1.82,1.83,19.34,19.34,0,0,0,25.46,0,20.84,20.84,0,0,0,1.82-1.82L39.79,38l-3.66-3.66-1.78-1.77-.91.91a8.84,8.84,0,0,1-1,.84A9,9,0,0,1,19.85,21.68a9.23,9.23,0,0,1,1.82-1.82,9,9,0,0,1,12.62,1.82l1.84-1.84a11.57,11.57,0,0,0-18.12,0,11.57,11.57,0,0,0,0,14.47,11.58,11.58,0,0,0,16.3,1.83L38,39.8a16.71,16.71,0,0,1-21.8,0A17.37,17.37,0,0,1,14.35,38a16.71,16.71,0,0,1,0-21.79,17.37,17.37,0,0,1,1.82-1.82,16.69,16.69,0,0,1,21.8,0,17.37,17.37,0,0,1,1.82,1.82l1.83-1.83,3.65-3.65,1.84-1.84c-.58-.63-1.19-1.24-1.83-1.82A27.07,27.07,0,0,0,8.86,7C8.22,7.62,7.61,8.23,7,8.86A27.07,27.07,0,0,0,7,45.29c.57.63,1.18,1.24,1.82,1.82a27.07,27.07,0,0,0,36.42,0c.64-.58,1.25-1.19,1.82-1.82l-1.83-1.84Z" transform="translate(0.01)"/></g></svg>