<svg xmlns="http://www.w3.org/2000/svg" viewBox="0 0 288.08 105.53"><defs><style>.cls-1{fill:#ff6b00;}.cls-2{fill:#00216a;}.cls-3{fill:#00a88e;}.cls-4{fill:#007472;}</style></defs><title>Asset 6</title><g id="Layer_2" data-name="Layer 2"><g id="Layer_1-2" data-name="Layer 1"><path class="cls-1" d="M284.69,100.22a5.31,5.31,0,1,1-5.3-5.3A5.31,5.31,0,0,1,284.69,100.22Zm-.93,0a4.39,4.39,0,1,0-4.38,4.42A4.4,4.4,0,0,0,283.76,100.22Zm-3.14.65,1.12,2.06h-1.23l-.95-1.83h-.79v1.83h-1.13V97.51h1.83a1.84,1.84,0,0,1,2.07,1.76A1.66,1.66,0,0,1,280.62,100.87Zm-1.85-.8h.7c.6,0,.94-.3.94-.74s-.34-.76-.94-.76h-.7Z"/><path class="cls-1" d="M288.08,40.72H191.33V0h56a40.71,40.71,0,0,1,40.71,40.71Z"/><polygon class="cls-2" points="40.71 64.81 40.71 0 0 0 0 105.53 82.12 105.53 82.12 64.81 40.71 64.81"/><path class="cls-3" d="M232,40.72V81.43h15.33a40.71,40.71,0,0,0,40.71-40.71Z"/><path class="cls-2" d="M102.64,0h-33V40.72h35.29v64.81h40.71V40.72h-2.24A40.72,40.72,0,0,1,102.64,0Z"/><path class="cls-1" d="M120.51-17.87h40.72a0,0,0,0,1,0,0V17.87a40.72,40.72,0,0,1-40.72,40.72h0a0,0,0,0,1,0,0V-17.87A0,0,0,0,1,120.51-17.87Z" transform="translate(161.22 -120.51) rotate(90)"/><path class="cls-4" d="M232,40.72v64.81H191.33V81.43A40.71,40.71,0,0,1,232,40.72Z"/></g></g></svg>