<?xml version="1.0" encoding="utf-8"?>
<!-- Generator: Adobe Illustrator 16.0.0, SVG Export Plug-In . SVG Version: 6.00 Build 0)  -->
<!DOCTYPE svg PUBLIC "-//W3C//DTD SVG 1.1//EN" "http://www.w3.org/Graphics/SVG/1.1/DTD/svg11.dtd" [
	<!ENTITY ns_extend "http://ns.adobe.com/Extensibility/1.0/">
	<!ENTITY ns_ai "http://ns.adobe.com/AdobeIllustrator/10.0/">
	<!ENTITY ns_graphs "http://ns.adobe.com/Graphs/1.0/">
	<!ENTITY ns_vars "http://ns.adobe.com/Variables/1.0/">
	<!ENTITY ns_imrep "http://ns.adobe.com/ImageReplacement/1.0/">
	<!ENTITY ns_sfw "http://ns.adobe.com/SaveForWeb/1.0/">
	<!ENTITY ns_custom "http://ns.adobe.com/GenericCustomNamespace/1.0/">
	<!ENTITY ns_adobe_xpath "http://ns.adobe.com/XPath/1.0/">
]>
<svg version="1.1" id="Layer_1" xmlns:x="&ns_extend;" xmlns:i="&ns_ai;" xmlns:graph="&ns_graphs;"
	 xmlns="http://www.w3.org/2000/svg" xmlns:xlink="http://www.w3.org/1999/xlink" x="0px" y="0px" width="897.061px"
	 height="386.024px" viewBox="30.15 76.28 897.061 386.024" enable-background="new 30.15 76.28 897.061 386.024"
	 xml:space="preserve">
<metadata>
	<sfw  xmlns="&ns_sfw;">
		<slices></slices>
		<sliceSourceBounds  width="897.061" height="386.024" y="58.196" x="-130.35" bottomLeftOrigin="true"></sliceSourceBounds>
	</sfw>
</metadata>
<g>
	<path fill="#44C1C1" d="M771.438,436.019c0,0-0.414,12.494,6.153,1.858l53.564-86.718c0,0,6.573-10.636,17.887-15.954l51.75-24.317
		c0,0,11.316-5.317,12.475-17.768l13.878-149.086c0,0,1.156-12.448-6.21-22.547L892.745,82.85c0,0-7.362-10.101-18.89-5.254
		L759.395,125.73c0,0-11.522,4.847-12.567,17.306l-12.035,143.258c0,0-1.044,12.459,6.181,22.664l25.918,36.606
		c0,0,7.222,10.203,6.808,22.699L771.438,436.019L771.438,436.019z"/>
	<path fill="#FFFFFF" d="M888.094,234.39c-1.918-3.251-4.25-5.859-7.001-7.829c-2.752-1.97-5.771-3.34-9.062-4.116
		c-3.299-0.775-6.577-0.962-9.84-0.561c-3.267,0.4-6.4,1.375-9.412,2.924c-3.008,1.55-5.608,3.613-7.798,6.188
		c-2.196,2.578-3.824,5.674-4.9,9.291c-1.073,3.618-1.328,7.724-0.767,12.321l0.077,0.618c0.562,4.599,1.804,8.519,3.724,11.77
		c1.919,3.252,4.251,5.86,7.001,7.829c2.752,1.97,5.771,3.34,9.062,4.116c3.294,0.776,6.572,0.963,9.837,0.561
		c3.266-0.402,6.4-1.377,9.41-2.928c3.012-1.546,5.612-3.611,7.803-6.186c2.191-2.575,3.823-5.672,4.9-9.29
		c1.072-3.618,1.329-7.726,0.766-12.321l-0.076-0.622C891.25,241.562,890.016,237.64,888.094,234.39L888.094,234.39z"/>
	<path fill="#FFFFFF" d="M779.886,225.474c-0.015,1.59,0.272,3.088,0.866,4.492c0.586,1.405,1.395,2.63,2.424,3.676
		c1.029,1.047,2.238,1.877,3.633,2.491c1.391,0.615,2.886,0.93,4.476,0.945c1.591,0.013,3.087-0.274,4.491-0.866
		c1.405-0.589,2.641-1.398,3.713-2.426c1.066-1.028,1.91-2.237,2.526-3.632c0.612-1.393,0.928-2.886,0.938-4.476l0.24-27.128
		c0.014-1.591-0.276-3.087-0.867-4.492c-0.591-1.403-1.412-2.641-2.464-3.713c-1.05-1.068-2.274-1.912-3.664-2.527
		c-1.396-0.615-2.889-0.93-4.479-0.944c-1.596-0.014-3.092,0.275-4.497,0.865c-1.398,0.591-2.624,1.413-3.674,2.463
		c-1.045,1.052-1.873,2.275-2.489,3.669c-0.615,1.393-0.931,2.885-0.942,4.476L779.886,225.474L779.886,225.474z"/>
	<path fill="#FFFFFF" d="M791.797,182.608c5.998,0.054,10.906-4.771,10.959-10.772c0.052-6.002-4.769-10.912-10.771-10.963
		c-6.003-0.054-10.91,4.77-10.964,10.772C780.971,177.649,785.793,182.559,791.797,182.608L791.797,182.608z"/>
	<path fill="#44C1C1" d="M735.855,393.641v-0.371c0-37.736-30.677-67.479-70.83-67.479c-40.154,0-71.199,30.114-71.199,67.852v0.372
		c0,37.739,30.674,67.482,70.829,67.482C704.805,461.495,735.855,431.381,735.855,393.641L735.855,393.641z M587.006,346.926
		c0-10.156-8.257-18.391-18.44-18.391c-0.145,0-0.271,0.038-0.411,0.042h-89.446c-0.142-0.004-0.271-0.042-0.414-0.042
		c-0.142,0-0.271,0.038-0.414,0.042h-0.415v0.042c-9.792,0.441-17.609,8.434-17.609,18.307c0,9.872,7.817,17.863,17.609,18.311
		v0.149h23.977v73.272h0.129c-0.028,0.434-0.134,0.844-0.134,1.286c0,11.997,9.754,21.723,21.778,21.723
		c12.03,0,21.781-9.726,21.781-21.723c0-0.442-0.104-0.854-0.127-1.286h0.073v-73.272h23.973v-0.104
		C578.933,365.091,587.006,356.961,587.006,346.926L587.006,346.926z M304.758,393.641v-0.371c0-37.736-30.674-67.479-70.828-67.479
		c-40.157,0-71.2,30.114-71.2,67.852v0.372c0,37.739,30.673,67.482,70.828,67.482C273.712,461.495,304.758,431.381,304.758,393.641
		L304.758,393.641z"/>
	<path fill="#44C1C1" d="M445.053,374.19v-0.371c0-13.385-4.09-23.053-11.897-30.859c-9.109-9.107-20.418-13.747-43.473-13.747
		h-36.519h-2.639l-0.076,0.072c-0.241-0.009-0.467-0.072-0.711-0.072c-12.771,0-23.105,10.1-23.549,22.701l-0.062,0.059
		c0,0.183,0,0.37,0,0.548c0,0.073-0.021,0.141-0.021,0.213s0.021,0.142,0.021,0.215c0.032,32.608,0.081,87.323,0.081,87.632
		c0,11.997,9.725,21.724,21.721,21.724c11.997,0,21.32-8.442,21.722-21.724c0.013-0.413,0.044-16.385,0.048-18.263l-0.156-0.153
		l0.158-0.038c0,0,0,0.073-0.002,0.191l29.554,28.88c8.327,9.9,22.055,15.079,32.632,7.201c7.429-4.95,11.029-13.952,6.492-22.712
		l-15.601-20.586C438.577,407.476,445.053,393.153,445.053,374.19L445.053,374.19z"/>
	<path fill="#44C1C1" d="M146.895,374.976v-0.372c0-30.859-23.61-46.289-58.186-46.289H53.681l-0.01,0.014
		c-12.999,0.06-23.521,10.556-23.521,23.507c0,0.204,0.056,0.393,0.061,0.598l-0.058,0.06c0.002,32.663,0.008,86.884,0.008,87.191
		c0,11.995,9.727,21.722,21.722,21.722c11.995,0,21.72-9.727,21.72-21.722c0-0.441,0.049-16.559,0.049-16.559H87.78
		C122.913,423.123,146.895,406.392,146.895,374.976L146.895,374.976z"/>
	
		<line fill="none" stroke="#FFFFFF" stroke-width="3.301" stroke-linecap="round" stroke-linejoin="bevel" x1="823.967" y1="168.351" x2="823.967" y2="292.975"/>
</g>
</svg>
