<svg xmlns="http://www.w3.org/2000/svg" viewBox="0 0 332.59 61.91"><defs><style>.cls-1{fill:#fff;}</style></defs><g id="Layer_1" data-name="Layer 1"><g id="icon"><g id="With_border_2_1mm_full" data-name="With border 2+1mm full"><path class="cls-1" d="M33.53.67,36,4.87a3.35,3.35,0,0,1,0,3.34L24,28.85a7.35,7.35,0,0,0,6.36,11l.51,0a8.55,8.55,0,0,0,1-.13h0a.8.8,0,0,1,.85.36,3.68,3.68,0,0,1,.53,1.36,4,4,0,0,1-4.11,4.76H7.34a1.11,1.11,0,0,1-1-1.67L31.6.67A1.12,1.12,0,0,1,33.53.67Z"></path></g><g id="With_border_2_1mm_full-2" data-name="With border 2+1mm full"><path class="cls-1" d="M.15,55.38l2.42-4.2a3.37,3.37,0,0,1,2.9-1.67l23.84,0a7.35,7.35,0,0,0,6.38-11l-.28-.42a8.12,8.12,0,0,0-.62-.8h0a.8.8,0,0,1-.11-.92,3.79,3.79,0,0,1,.91-1.14,4,4,0,0,1,6.18,1.18L52.68,55.3a1.11,1.11,0,0,1-1,1.67l-50.59.08A1.11,1.11,0,0,1,.15,55.38Z"></path></g><g id="With_border_2_1mm_full-3" data-name="With border 2+1mm full"><path class="cls-1" d="M64.22,56.93H59.38a3.33,3.33,0,0,1-2.9-1.67L44.58,34.6a7.36,7.36,0,0,0-12.75,0l-.22.45a6.37,6.37,0,0,0-.38.94h0a.83.83,0,0,1-.74.56A4.11,4.11,0,0,1,29,36.32,4,4,0,0,1,27,30.38l10.91-18.9a1.12,1.12,0,0,1,1.93,0L65.19,55.26A1.11,1.11,0,0,1,64.22,56.93Z"></path></g></g><g id="reviewpad_outlines" data-name="reviewpad outlines"><path class="cls-1" d="M97.62,26.16a5.69,5.69,0,0,0-2.37-.61,4.75,4.75,0,0,0-3.63,1.54,5.42,5.42,0,0,0-1.54,3.79V48.37H85.35V30.88a10.22,10.22,0,0,1,1.52-5.44A10.35,10.35,0,0,1,91,21.59a9.83,9.83,0,0,1,4.23-.93,9.27,9.27,0,0,1,3.47.66,13.47,13.47,0,0,1,3.46,2.14Z"></path><path class="cls-1" d="M105.81,36.71a5,5,0,0,0,1,2.75A10.15,10.15,0,0,0,109,41.88a8.45,8.45,0,0,0,5.39,1.81q4.89,0,8-4.72l4.18,2.47a15.57,15.57,0,0,1-5.28,5.33,13.13,13.13,0,0,1-6.87,1.87,13.48,13.48,0,0,1-5.34-1.07,13.76,13.76,0,0,1-4.45-3,14,14,0,0,1-3-4.45,13.57,13.57,0,0,1-1.07-5.33A13.9,13.9,0,0,1,104.6,25,12.62,12.62,0,0,1,109,22a14.21,14.21,0,0,1,10.72,0,12.67,12.67,0,0,1,4.42,3,13.45,13.45,0,0,1,4.07,9.67,14,14,0,0,1-.16,2.09Zm4.34-10.28A8.59,8.59,0,0,0,107,29a5.73,5.73,0,0,0-1.18,3.44H123A5.73,5.73,0,0,0,121.78,29a8.59,8.59,0,0,0-3.16-2.61,9.55,9.55,0,0,0-8.47,0Z"></path><path class="cls-1" d="M143.2,48.37h-4.68L127.69,20.88h5.23l8,20.07,7.92-20.07H154Z"></path><path class="cls-1" d="M158.07,16.18a2.53,2.53,0,1,1,3.57-3.58,2.53,2.53,0,1,1-3.57,3.58Zm-.47,32.19V20.88h4.62V48.37Z"></path><path class="cls-1" d="M169.86,36.71a5,5,0,0,0,1,2.75,10.58,10.58,0,0,0,2.23,2.42,8.47,8.47,0,0,0,5.39,1.81q4.89,0,8-4.72l4.18,2.47a15.57,15.57,0,0,1-5.28,5.33,13.13,13.13,0,0,1-6.87,1.87,13.39,13.39,0,0,1-5.33-1.07,14,14,0,0,1-7.45-7.45,13.4,13.4,0,0,1-1.08-5.33A14,14,0,0,1,168.65,25a12.8,12.8,0,0,1,4.43-3,14.21,14.21,0,0,1,10.72,0,12.71,12.71,0,0,1,4.43,3,13.45,13.45,0,0,1,4.07,9.67,14.11,14.11,0,0,1-.17,2.09Zm4.35-10.28A8.5,8.5,0,0,0,171.05,29a5.74,5.74,0,0,0-1.19,3.44H187A5.79,5.79,0,0,0,185.84,29a8.62,8.62,0,0,0-3.17-2.61,9.53,9.53,0,0,0-8.46,0Z"></path><path class="cls-1" d="M223.53,48.37h-4.79l-5-12.43-5,12.43H204l-11.1-27.49h5.38L206.32,41l4.73-11.61-3.41-8.46H213L221.11,41l8.08-20.07h5.33Z"></path><path class="cls-1" d="M246,47.85a10.82,10.82,0,0,1-3.79-3.22V60.08h-4.9V21.54h4.9v3.85A13.2,13.2,0,0,1,246.24,22a10.34,10.34,0,0,1,4.94-1.26,13.61,13.61,0,0,1,5.36,1.07A12.78,12.78,0,0,1,261,24.89a14.6,14.6,0,0,1,3,4.54A13.92,13.92,0,0,1,265,34.84,13.72,13.72,0,0,1,264,40.23a14.7,14.7,0,0,1-3,4.51,13.56,13.56,0,0,1-4.43,3,13.29,13.29,0,0,1-5.36,1.1A12,12,0,0,1,246,47.85Zm1.76-21.39a8.46,8.46,0,0,0-2.86,1.95,9.47,9.47,0,0,0-1.92,2.94,8.76,8.76,0,0,0-.72,3.49,8.6,8.6,0,0,0,.72,3.47,9.57,9.57,0,0,0,1.92,2.91,8.83,8.83,0,0,0,2.86,2,8.81,8.81,0,0,0,6.93,0,8.83,8.83,0,0,0,2.86-2,9.48,9.48,0,0,0,1.89-2.91,8.92,8.92,0,0,0,.69-3.47,9.09,9.09,0,0,0-.69-3.49,9.39,9.39,0,0,0-1.89-2.94,8.46,8.46,0,0,0-2.86-1.95,9,9,0,0,0-6.93,0Z"></path><path class="cls-1" d="M290.06,48.37V44.19A13.74,13.74,0,0,1,286,47.43a10.36,10.36,0,0,1-4.9,1.21,13.57,13.57,0,0,1-9.78-4,13.06,13.06,0,0,1-3-4.43A13.89,13.89,0,0,1,275.73,22a13.91,13.91,0,0,1,5.36-1,11.62,11.62,0,0,1,9,4.18V21.54H295V48.37ZM277.6,26.57a8.51,8.51,0,0,0-4.78,4.78,9.09,9.09,0,0,0-.69,3.49,8.92,8.92,0,0,0,.69,3.47,8.78,8.78,0,0,0,1.9,2.86,8.69,8.69,0,0,0,2.88,1.89,9.09,9.09,0,0,0,3.49.69,9,9,0,0,0,6.33-2.58,8.75,8.75,0,0,0,1.89-2.86,8.92,8.92,0,0,0,.69-3.47,9.09,9.09,0,0,0-.69-3.49,8.68,8.68,0,0,0-1.89-2.89,9,9,0,0,0-6.33-2.58A9.09,9.09,0,0,0,277.6,26.57Z"></path><path class="cls-1" d="M320.79,48.37V44.13a13,13,0,0,1-4.15,3.3,10.83,10.83,0,0,1-5,1.21,13.72,13.72,0,0,1-5.44-1.07,12.85,12.85,0,0,1-4.4-3,14.39,14.39,0,0,1-3-4.54,14.12,14.12,0,0,1,0-10.83,14.46,14.46,0,0,1,3-4.53,13,13,0,0,1,4.4-3.06,13.89,13.89,0,0,1,5.44-1.07,11.58,11.58,0,0,1,5.2,1.16,11.19,11.19,0,0,1,3.93,3.19v-13h4.84V48.37ZM308.2,26.18a8.46,8.46,0,0,0-2.86,1.95,9.63,9.63,0,0,0-1.92,2.95,8.72,8.72,0,0,0-.72,3.49A9,9,0,0,0,305.34,41a8.83,8.83,0,0,0,2.86,2,8.54,8.54,0,0,0,3.46.71,8.8,8.8,0,0,0,3.5-.71A8.71,8.71,0,0,0,318,41a9,9,0,0,0,2.64-6.43,8.89,8.89,0,0,0-.71-3.49A9.85,9.85,0,0,0,318,28.13a8.35,8.35,0,0,0-2.88-1.95,9.13,9.13,0,0,0-3.5-.68A8.86,8.86,0,0,0,308.2,26.18Z"></path></g></g></svg>